<svg xmlns="http://www.w3.org/2000/svg" xmlns:xlink="http://www.w3.org/1999/xlink" width="30" height="30" viewBox="0 0 30 30">
    <defs>
        <path id="a" d="M5 5h20v20H5z"/>
    </defs>
    <g fill="none" fill-rule="evenodd">
        <path d="M0 0h30v30H0z"/>
        <mask id="b" fill="#fff">
            <use xlink:href="#a"/>
        </mask>
        <path fill="#FFF" d="M22.647 9.607a1.597 1.597 0 0 1-1.119.463c-.416 0-.824-.17-1.118-.463a1.595 1.595 0 0 1-.464-1.12c0-.416.17-.825.464-1.118a1.588 1.588 0 0 1 1.118-.463c.417 0 .825.168 1.119.463.295.293.463.702.463 1.119 0 .415-.168.824-.463 1.119zM15 19.497A4.502 4.502 0 0 1 10.503 15 4.502 4.502 0 0 1 15 10.503 4.502 4.502 0 0 1 19.497 15 4.502 4.502 0 0 1 15 19.497zm10 .95V9.553A4.558 4.558 0 0 0 20.447 5H9.552A4.558 4.558 0 0 0 5 9.553v10.894A4.558 4.558 0 0 0 9.552 25h10.895A4.558 4.558 0 0 0 25 20.447z" mask="url(#b)"/>
    </g>
</svg>
