<svg xmlns="http://www.w3.org/2000/svg" xmlns:xlink="http://www.w3.org/1999/xlink" width="30" height="30" viewBox="0 0 30 30">
    <defs>
        <path id="a" d="M5 5h23v20H5z"/>
    </defs>
    <g fill="none" fill-rule="evenodd">
        <path d="M0 0h30v30H0z"/>
        <mask id="b" fill="#fff">
            <use xlink:href="#a"/>
        </mask>
        <path fill="#FFF" d="M28 7.368a8.959 8.959 0 0 1-2.71.795 5.019 5.019 0 0 0 2.075-2.794 9.081 9.081 0 0 1-2.997 1.225C23.508 5.614 22.281 5 20.924 5c-2.606 0-4.719 2.26-4.719 5.049 0 .396.042.78.122 1.15-3.921-.21-7.398-2.22-9.726-5.275a5.297 5.297 0 0 0-.639 2.538c0 1.752.833 3.298 2.1 4.203a4.468 4.468 0 0 1-2.138-.632v.064c0 2.446 1.626 4.487 3.785 4.95a4.438 4.438 0 0 1-2.13.087c.6 2.006 2.342 3.466 4.407 3.507-1.615 1.354-3.65 2.161-5.86 2.161-.381 0-.757-.024-1.126-.07C7.088 24.163 9.569 25 12.233 25c8.68 0 13.426-7.694 13.426-14.366 0-.219-.005-.436-.014-.653A9.986 9.986 0 0 0 28 7.368" mask="url(#b)"/>
    </g>
</svg>
