<svg xmlns="http://www.w3.org/2000/svg" xmlns:xlink="http://www.w3.org/1999/xlink" width="30" height="30" viewBox="0 0 30 30">
    <defs>
        <path id="a" d="M1 5h29v20H1z"/>
    </defs>
    <g fill="none" fill-rule="evenodd">
        <path d="M0 0h30v30H0z"/>
        <mask id="b" fill="#fff">
            <use xlink:href="#a"/>
        </mask>
        <path fill="#FFF" d="M19.618 15.68l-6.084 3.115a.95.95 0 0 1-.918-.028.913.913 0 0 1-.45-.784V11.77c0-.32.17-.617.449-.784a.952.952 0 0 1 .917-.03l6.084 3.096c.31.158.504.47.504.813a.914.914 0 0 1-.502.813m9.252-8.962C27.823 5.497 25.89 5 22.2 5H8.8c-3.775 0-5.74.53-6.783 1.828C1 8.094 1 9.958 1 12.54v4.92c0 5 1.206 7.54 7.8 7.54h13.4c3.2 0 4.974-.439 6.121-1.515C29.498 22.38 30 20.579 30 17.46v-4.92c0-2.722-.079-4.598-1.13-5.823" mask="url(#b)"/>
    </g>
</svg>
