<svg xmlns="http://www.w3.org/2000/svg" xmlns:xlink="http://www.w3.org/1999/xlink" width="199" height="64" viewBox="0 0 199 64">
    <defs>
        <path id="a" d="M0 63h198.572V.963H0z"/>
    </defs>
    <g fill="none" fill-rule="evenodd">
        <path fill="#00DA00" d="M23.333 24.394L.01 47.718h12.465l23.324-23.324L12.474 1.07 0 1.06zM175.011 1v47.121l23.561-23.56z"/>
        <path fill="#FFF" d="M53.043 53.072l-4.127 5.412-4.128-5.413h-.923v9.965h1.07v-8.108l3.981 5.26 3.988-5.26v8.108h1.063v-9.965zM64.305 53.072v9.965h6.976v-.995h-5.906V58.34h4.621v-.992h-4.621v-3.273h5.759v-1.002z"/>
        <g transform="translate(0 .037)">
            <path fill="#FFF" d="M83.727 54.036h-2.063v7.97h2.063c1.167 0 2.147-.386 2.94-1.16.792-.774 1.188-1.715 1.188-2.825s-.396-2.05-1.189-2.825c-.792-.773-1.772-1.16-2.939-1.16zm-3.134-1.001h3.134c1.45 0 2.678.489 3.683 1.467 1.005.977 1.508 2.149 1.508 3.515 0 1.367-.503 2.54-1.508 3.517-1.005.978-2.233 1.466-3.683 1.466h-3.134v-9.965z"/>
            <mask id="b" fill="#fff">
                <use xlink:href="#a"/>
            </mask>
            <path fill="#FFF" d="M98.615 63h1.07v-9.965h-1.07zM115.4 59.227l-1.918-4.698-1.924 4.698h3.842zm.431 1h-4.698L109.994 63h-1.14l4.128-9.965h.993L118.103 63h-1.133l-1.139-2.772zM133.465 63h-6.191v-9.965h1.07v8.97h5.12zM148.58 59.227l-1.917-4.698-1.925 4.698h3.842zm.43 1h-4.696L143.174 63h-1.14l4.128-9.965h.994L151.283 63h-1.132l-1.14-2.772zM161.524 62.006h2.987c.598 0 1.078-.174 1.443-.521.363-.348.545-.792.545-1.334 0-.552-.184-1.02-.553-1.407-.368-.387-.847-.58-1.435-.58h-2.987v3.842zm2.771-7.97h-2.77v3.19h2.77c.534 0 .952-.145 1.255-.435.304-.29.454-.686.454-1.192 0-.463-.15-.84-.454-1.13-.303-.288-.72-.433-1.255-.433zm1.641 3.627c.046.018.105.045.174.077.068.032.198.12.39.264.19.143.355.3.5.472.142.172.274.409.391.712.118.303.178.625.178.963 0 .824-.283 1.505-.848 2.042-.565.538-1.3.807-2.21.807h-4.057v-9.965h3.841c.807 0 1.47.247 1.993.74.52.494.781 1.102.781 1.824 0 .292-.037.562-.11.81-.077.248-.17.446-.288.594a3.021 3.021 0 0 1-.342.379 1.34 1.34 0 0 1-.283.21l-.11.07zM60.372 9.706h-9.844v14.483h9.844c1.999 0 3.705-.692 5.12-2.078 1.414-1.386 2.122-3.103 2.122-5.15 0-2.045-.708-3.766-2.122-5.161-1.415-1.395-3.121-2.094-5.12-2.094zm-16.21-5.8h16.21c3.866 0 7.104 1.27 9.717 3.805 2.61 2.537 3.917 5.62 3.917 9.25s-1.306 6.71-3.917 9.237c-2.613 2.527-5.851 3.79-9.717 3.79h-9.844v14.484h-6.365V3.907zM82.553 44.471h6.365V3.907h-6.365zM143.024 38.672h22.884v5.8H136.66V3.905h28.683v5.8h-22.318v10.72h17.68v5.8h-17.68zM129.94 3.907l-7.71.008L109 20.723h-2.734V3.907h-6.364v40.565h6.364V27.656h2.727L122.23 44.47h7.703L113.97 24.193z" mask="url(#b)"/>
        </g>
    </g>
</svg>
